<svg xmlns="http://www.w3.org/2000/svg" viewBox="0 0 512 512" role="img" aria-label="Swissly IT Solutions Mark">
  <defs>
    <linearGradient id="swisslyGold" x1="0" y1="0" x2="1" y2="1">
      <stop offset="0%" stop-color="#8B7448"/>
      <stop offset="50%" stop-color="#B89968"/>
      <stop offset="100%" stop-color="#C9B084"/>
    </linearGradient>
    <mask id="weaveMask" maskUnits="userSpaceOnUse" x="0" y="0" width="512" height="512">
      <path fill="#fff" d="M0 0h512v512H0z"/>
      <circle cx="336" cy="163" r="22"/>
      <circle cx="349" cy="336" r="22"/>
      <circle cx="176" cy="349" r="22"/>
      <circle cx="163" cy="176" r="22"/>
    </mask>
    <style>
      .cross-stroke { fill: none; stroke: #1A2D45; stroke-width: 18; stroke-linejoin: miter; }
      .cross-inner  { fill: none; stroke: url(#swisslyGold); stroke-width: 13; stroke-linejoin: miter; }
      .star-fill    { fill: url(#swisslyGold); }
    </style>
  </defs>
  <path class="star-fill" d="M407 105q-160.8 151 0 302-151-160.8-302 0 160.8-151 0-302 151 160.8 302 0Z"/>
  <g mask="url(#weaveMask)">
    <path class="cross-stroke" d="M176 56h160v120h120v160H336v120H176V336H56V176h120Z"/>
    <path class="cross-inner"  d="M206 86h100v120h120v100H306v120H206V306H86V206h120Z"/>
  </g>
</svg>
