<svg xmlns="http://www.w3.org/2000/svg" viewBox="0 0 1025 1025" role="img" aria-label="Swissly IT Solutions">
  <defs>
    <linearGradient id="swisslyGold" x1="0" y1="0" x2="1" y2="1">
      <stop offset="0%" stop-color="#83714D"/>
      <stop offset="50%" stop-color="#A5906B"/>
      <stop offset="100%" stop-color="#CBB58B"/>
    </linearGradient>
  </defs>
  <g class="cross-stroke" fill="#1C3142">
    <g transform="translate(0.000000,1025.000000) scale(0.100000,-0.100000)" stroke="none">
<path d="M3554 9489 c-2 -4 -6 -445 -9 -980 -6 -985 -8 -1051 -45 -1199 -94
-371 -235 -564 -585 -799 -305 -206 -437 -305 -695 -520 -200 -168 -490 -436
-490 -453 0 -26 240 -283 258 -277 6 2 63 54 128 115 349 325 529 468 1060
839 373 261 528 461 652 845 96 294 101 366 102 1234 l0 709 29 -6 c121 -25
528 -224 720 -353 l66 -44 65 68 c36 38 98 97 138 132 39 34 72 66 72 69 -1
15 -269 196 -335 227 -13 6 102 10 323 12 l344 2 31 24 c140 105 468 267 680
335 20 7 37 17 37 21 0 11 -2539 9 -2546 -1z"/>
<path d="M5405 8388 c-44 -40 -104 -97 -132 -128 l-53 -55 68 -70 c308 -318
350 -369 722 -856 415 -546 660 -751 1048 -878 281 -92 395 -101 1275 -101
367 0 667 -2 667 -4 0 -44 -211 -479 -317 -654 -41 -67 -73 -126 -71 -131 5
-13 262 -291 269 -291 10 0 109 161 170 275 l54 100 5 -346 5 -346 53 -87 c85
-139 206 -380 263 -526 48 -119 55 -131 60 -105 9 39 11 2408 3 2468 l-7 46
-1026 4 c-1155 3 -1080 -1 -1322 83 -290 101 -443 228 -724 604 -348 464 -531
686 -749 908 -87 89 -164 162 -170 162 -6 0 -47 -33 -91 -72z"/>
<path d="M700 4816 l0 -1235 1043 -4 c1144 -4 1097 -2 1294 -66 256 -84 468
-245 650 -496 386 -530 386 -530 549 -725 141 -168 459 -500 480 -500 7 0 72
57 144 126 l131 127 -129 131 c-141 144 -286 308 -408 461 -92 114 -133 170
-339 455 -350 483 -557 652 -970 789 -266 88 -216 84 -1127 88 -754 4 -808 5
-808 21 0 53 217 499 331 680 l59 95 -132 136 c-73 75 -136 137 -140 139 -8 4
-153 -213 -209 -313 l-34 -60 -5 350 -5 350 -72 117 c-93 150 -178 313 -238
456 -26 61 -52 112 -56 112 -5 0 -9 -547 -9 -1234z"/>
<path d="M8145 4969 c-205 -211 -472 -431 -886 -728 -308 -222 -405 -298 -517
-411 -212 -213 -357 -498 -429 -843 l-28 -132 -2 -785 c-2 -432 -5 -791 -8
-797 -13 -38 -459 173 -700 331 l-99 65 -131 -127 c-71 -70 -131 -129 -133
-133 -4 -9 120 -105 238 -185 l102 -69 -343 -5 -344 -5 -75 -51 c-134 -91
-374 -216 -545 -284 -38 -16 -71 -33 -73 -39 -3 -8 348 -10 1245 -9 l1248 3 5
1035 c4 752 9 1052 18 1097 52 261 173 502 337 667 65 65 240 202 410 321 325
228 636 481 885 722 l145 140 -30 39 c-44 58 -216 234 -229 234 -7 0 -34 -23
-61 -51z"/>
</g>
  </g>
  <g class="star-fill" fill="url(#swisslyGold)">
    <g transform="translate(0.000000,1025.000000) scale(0.100000,-0.100000)" stroke="none">
<path d="M6424 9445 c-773 -177 -1393 -600 -1880 -1281 -187 -262 -335 -556
-462 -919 -65 -182 -134 -532 -154 -776 l-12 -147 -95 -6 c-141 -10 -309 -35
-361 -55 -42 -16 -201 -125 -495 -339 -141 -102 -141 -102 72 -73 377 52 603
70 988 79 l270 7 7 210 c10 327 37 552 93 780 160 644 547 1246 1055 1639 107
83 129 98 259 181 161 102 522 265 557 251 12 -5 14 -107 14 -625 l0 -620 70
-88 c38 -48 118 -151 178 -227 59 -77 113 -141 120 -144 9 -3 12 235 12 1092
l0 1096 -47 -1 c-27 -1 -112 -16 -189 -34z"/>
<path d="M5793 7319 c3 -19 19 -115 36 -214 47 -275 71 -553 78 -877 6 -284 6
-288 27 -288 652 -9 972 -58 1384 -211 746 -278 1367 -897 1647 -1644 19 -52
35 -99 35 -105 0 -7 -198 -10 -628 -10 l-627 0 -164 -120 c-219 -161 -331
-249 -331 -261 0 -8 207 -11 830 -13 69 -1 414 0 768 2 l642 2 0 32 c0 98
-111 490 -201 710 -407 994 -1348 1743 -2434 1937 -170 31 -338 51 -424 51
-43 0 -92 3 -108 6 l-29 6 -12 192 c-7 106 -16 207 -21 224 -5 16 -67 106
-137 199 -71 92 -155 204 -188 248 -118 158 -153 191 -143 134z"/>
<path d="M710 6690 c13 -9 7 -14 -12 -11 -21 3 31 -256 89 -447 243 -802 872
-1520 1682 -1921 431 -213 847 -323 1319 -347 l132 -6 0 -48 c0 -74 29 -352
41 -388 6 -18 46 -81 88 -140 185 -257 334 -458 349 -470 22 -17 34 -15 28 6
-21 69 -89 536 -106 727 -8 96 -30 578 -30 673 0 22 -1 22 -147 22 -926 1
-1665 280 -2262 855 -289 279 -584 716 -682 1013 -12 37 -24 73 -27 80 -3 9
125 12 621 12 l625 0 29 24 c27 22 142 104 391 278 61 44 112 83 112 89 0 5
-424 9 -1127 9 -732 0 -1123 -4 -1113 -10z"/>
<path d="M7319 4466 c-2 -2 -130 -22 -284 -45 -333 -48 -589 -70 -895 -79
l-225 -7 -6 -235 c-16 -564 -115 -985 -338 -1429 -323 -644 -903 -1164 -1540
-1382 -47 -16 -88 -29 -93 -29 -4 0 -8 277 -8 615 l0 615 -112 152 c-239 327
-262 355 -273 326 -3 -7 -4 -503 -3 -1103 l3 -1090 60 1 c233 3 753 190 1094
393 357 212 745 582 993 946 355 520 551 1097 593 1747 l7 96 96 6 c287 17
319 22 375 62 29 21 165 119 302 217 138 99 260 187 272 196 12 9 23 19 23 24
0 7 -34 10 -41 3z"/>
</g>
  </g>
</svg>